HIERARCHY
ROOT Hips
{
	OFFSET 0.000000 89.005402 0.000000
	CHANNELS 6 Xposition Yposition Zposition Xrotation Yrotation Zrotation
	JOINT Spine
	{
		OFFSET 0.116900 10.681000 0.373400
		CHANNELS 3 Xrotation Yrotation Zrotation
		JOINT Spine1
		{
			OFFSET 0.000000 13.840401 0.053500
			CHANNELS 3 Xrotation Yrotation Zrotation
			JOINT Spine2
			{
				OFFSET 0.000000 14.712700 -0.366200
				CHANNELS 3 Xrotation Yrotation Zrotation
				JOINT Neck
				{
					OFFSET 0.000000 35.415497 -3.314200
					CHANNELS 3 Xrotation Yrotation Zrotation
					JOINT Head
					{
						OFFSET 0.000000 16.899200 1.218300
						CHANNELS 3 Xrotation Yrotation Zrotation
						JOINT HeadTop_End
						{
							OFFSET 0.000000 22.206207 2.192500
							CHANNELS 3 Xrotation Yrotation Zrotation
							End Site
							{
								OFFSET 0.000000 22.314178 0.000000
							}
						}
					}
				}
				JOINT LeftShoulder
				{
					OFFSET 12.896400 26.716293 -4.548400
					CHANNELS 3 Xrotation Yrotation Zrotation
					JOINT LeftArm
					{
						OFFSET 19.027000 -4.857010 -1.718400
						CHANNELS 3 Xrotation Yrotation Zrotation
						JOINT LeftForeArm
						{
							OFFSET 24.179897 0.000000 0.000000
							CHANNELS 3 Xrotation Yrotation Zrotation
							JOINT LeftHand
							{
								OFFSET 27.156403 0.000000 0.000000
								CHANNELS 3 Xrotation Yrotation Zrotation
								JOINT LeftHandIndex1
								{
									OFFSET 16.441200 0.000000 0.000000
									CHANNELS 3 Xrotation Yrotation Zrotation
									JOINT LeftHandIndex2
									{
										OFFSET 4.821899 0.000000 0.000000
										CHANNELS 3 Xrotation Yrotation Zrotation
										JOINT LeftHandIndex3
										{
											OFFSET 6.386497 0.000000 0.000000
											CHANNELS 3 Xrotation Yrotation Zrotation
											JOINT LeftHandIndex4
											{
												OFFSET 5.188988 0.000000 0.000000
												CHANNELS 3 Xrotation Yrotation Zrotation
												End Site
												{
													OFFSET -0.178703 5.185913 0.000177
												}
											}
										}
									}
								}
								JOINT LeftHandThumb1
								{
									OFFSET 6.534897 -5.032593 5.900300
									CHANNELS 3 Xrotation Yrotation Zrotation
									JOINT LeftHandThumb2
									{
										OFFSET 3.818176 -2.204422 2.204423
										CHANNELS 3 Xrotation Yrotation Zrotation
										JOINT LeftHandThumb3
										{
											OFFSET 3.252098 -1.877594 1.877601
											CHANNELS 3 Xrotation Yrotation Zrotation
											JOINT LeftHandThumb4
											{
												OFFSET 5.251778 -3.032120 3.032117
												CHANNELS 3 Xrotation Yrotation Zrotation
												End Site
												{
													OFFSET 0.000023 6.780014 0.000000
												}
											}
										}
									}
								}
							}
						}
					}
				}
				JOINT RightShoulder
				{
					OFFSET -12.896300 26.716293 -4.548400
					CHANNELS 3 Xrotation Yrotation Zrotation
					JOINT RightArm
					{
						OFFSET -19.027000 -4.857010 -1.718400
						CHANNELS 3 Xrotation Yrotation Zrotation
						JOINT RightForeArm
						{
							OFFSET -24.179897 0.000000 0.000000
							CHANNELS 3 Xrotation Yrotation Zrotation
							JOINT RightHand
							{
								OFFSET -27.156403 0.000000 0.000000
								CHANNELS 3 Xrotation Yrotation Zrotation
								JOINT RightHandThumb1
								{
									OFFSET -6.591202 -4.852203 5.988100
									CHANNELS 3 Xrotation Yrotation Zrotation
									JOINT RightHandThumb2
									{
										OFFSET -3.818176 -2.204422 2.204423
										CHANNELS 3 Xrotation Yrotation Zrotation
										JOINT RightHandThumb3
										{
											OFFSET -3.252098 -1.877594 1.877601
											CHANNELS 3 Xrotation Yrotation Zrotation
											JOINT RightHandThumb4
											{
												OFFSET -5.251778 -3.032120 3.032117
												CHANNELS 3 Xrotation Yrotation Zrotation
												End Site
												{
													OFFSET -0.000023 6.780014 0.000000
												}
											}
										}
									}
								}
								JOINT RightHandIndex1
								{
									OFFSET -16.029404 0.000000 0.000000
									CHANNELS 3 Xrotation Yrotation Zrotation
									JOINT RightHandIndex2
									{
										OFFSET -5.213303 0.000000 0.000000
										CHANNELS 3 Xrotation Yrotation Zrotation
										JOINT RightHandIndex3
										{
											OFFSET -6.386528 0.000000 0.000000
											CHANNELS 3 Xrotation Yrotation Zrotation
											JOINT RightHandIndex4
											{
												OFFSET -5.189026 0.000000 0.000000
												CHANNELS 3 Xrotation Yrotation Zrotation
												End Site
												{
													OFFSET 0.236702 5.183624 0.001972
												}
											}
										}
									}
								}
							}
						}
					}
				}
			}
		}
	}
	JOINT LeftUpLeg
	{
		OFFSET 14.073000 -7.904099 -1.463000
		CHANNELS 3 Xrotation Yrotation Zrotation
		JOINT LeftLeg
		{
			OFFSET -0.109806 -34.073280 4.093200
			CHANNELS 3 Xrotation Yrotation Zrotation
			JOINT LeftFoot
			{
				OFFSET 0.109806 -29.899420 -6.319000
				CHANNELS 3 Xrotation Yrotation Zrotation
				JOINT LeftToeBase
				{
					OFFSET 1.551100 -14.988700 20.535801
					CHANNELS 3 Xrotation Yrotation Zrotation
					JOINT LeftToe_End
					{
						OFFSET 0.221200 0.570800 13.248301
						CHANNELS 3 Xrotation Yrotation Zrotation
						End Site
						{
							OFFSET 0.000000 13.262435 0.000000
						}
					}
				}
			}
		}
	}
	JOINT RightUpLeg
	{
		OFFSET -13.839300 -7.904099 -1.463000
		CHANNELS 3 Xrotation Yrotation Zrotation
		JOINT RightLeg
		{
			OFFSET 0.109694 -34.073219 4.093300
			CHANNELS 3 Xrotation Yrotation Zrotation
			JOINT RightFoot
			{
				OFFSET -0.109694 -29.899384 -6.319200
				CHANNELS 3 Xrotation Yrotation Zrotation
				JOINT RightToeBase
				{
					OFFSET -1.551100 -14.988700 20.535801
					CHANNELS 3 Xrotation Yrotation Zrotation
					JOINT RightToe_End
					{
						OFFSET -0.221200 0.570900 13.248299
						CHANNELS 3 Xrotation Yrotation Zrotation
						End Site
						{
							OFFSET 0.000000 13.262440 0.000000
						}
					}
				}
			}
		}
	}
}
MOTION
Frames: 4
Frame Time: 0.033333
-1.255993 63.190018 1.483013 16.385180 6.988029 5.042692 11.014170 -14.944299 9.345831 2.869504 -4.087946 0.126405 2.861629 -4.312290 0.311449 -0.686686 2.356463 -4.369679 -6.950650 9.368159 -11.091015 -0.000003 -0.000000 0.000000 2.870350 -11.957088 6.152311 -33.803672 -70.877597 -6.927829 -0.000106 -94.709555 -0.000069 15.904413 -20.838180 11.426095 0.614965 5.226350 -14.494949 0.212947 1.566685 -15.479609 0.212819 1.566227 -15.474965 -0.000002 0.000003 0.000003 -14.374002 -24.771119 -3.357602 9.920183 43.708870 4.996014 -9.012743 -8.993959 12.231302 -0.000002 -0.000001 0.000002 1.160777 1.322827 15.019977 -9.561468 -31.604190 40.055081 -0.000002 10.749791 -0.000008 16.791825 19.009491 -20.617997 -6.394889 8.753155 -2.624472 8.233907 -29.439068 -1.700690 -7.568546 8.340461 -10.032343 0.000001 -0.000002 0.000001 -1.729900 6.496058 11.707665 0.189240 -1.315435 16.372462 0.199578 -1.350086 16.816616 -0.000001 -0.000001 -0.000001 21.675279 8.411784 -8.048545 40.279104 13.373338 -8.785951 -39.947352 17.236542 -18.321083 -42.282395 -0.000007 0.000001 -0.000001 -0.000001 -0.000000 -86.755745 0.921633 -0.511036 47.739853 -8.591539 0.966690 15.712126 -28.874068 -11.525826 -4.481200 -0.000002 0.000002 -0.000000 0.000000 0.000000 
-0.164239 62.894012 3.545195 19.446006 5.740748 3.865834 11.772838 -14.256839 11.183965 2.811863 -3.985145 0.793278 2.774118 -4.182686 0.968381 -0.682640 2.365531 -4.508675 -7.568739 9.204061 -10.081149 0.000000 0.000001 -0.000000 2.746409 -12.691537 4.403974 -34.152172 -64.078014 -9.679789 0.000132 -94.790417 0.000115 20.824999 -20.649730 15.537338 0.554808 4.983819 -14.096603 0.225851 1.612552 -15.944897 0.225729 1.612109 -15.940379 0.000001 -0.000001 0.000000 -13.662598 -24.114285 -2.888341 9.854822 42.795360 4.956238 -9.051012 -8.964095 12.249487 -0.000003 0.000000 0.000001 1.069320 2.619270 15.680777 -10.335042 -30.159110 39.269643 -0.000012 12.175108 -0.000009 13.606010 14.560450 -20.782606 -6.149189 8.608543 -2.677301 8.227304 -29.104133 -1.757253 -7.586229 8.188873 -10.140825 0.000002 0.000001 -0.000002 -1.670125 6.421633 11.443220 0.197262 -1.342417 16.718189 0.207551 -1.376176 17.151763 0.000001 0.000001 -0.000000 18.621872 7.228936 -6.716948 42.340817 13.114919 -8.974662 -34.569346 19.903496 -21.708547 -39.514256 -0.000003 0.000003 0.000000 -0.000001 0.000000 -89.976076 0.276040 0.193466 50.947341 -7.972354 0.973936 13.459500 -28.669962 -10.354919 -4.498222 -0.000006 0.000002 -0.000000 0.000001 0.000000 
0.913599 62.562462 5.462622 22.659083 4.404243 2.516805 12.463122 -13.583479 13.131283 2.742395 -3.889967 1.512141 2.673118 -4.057691 1.676633 -0.669585 2.364537 -4.613783 -8.264796 8.955944 -8.856968 -0.000003 -0.000000 0.000000 2.579913 -13.539986 2.660669 -34.441888 -56.764725 -11.956542 -0.000277 -95.009816 -0.000215 25.909194 -19.917168 19.647297 0.496380 4.734057 -13.688040 0.239491 1.659525 -16.422679 0.239368 1.659106 -16.418315 0.000001 0.000003 0.000004 -12.943416 -23.433184 -2.423820 9.787092 41.857424 4.915493 -9.090285 -8.933470 12.268218 0.000001 0.000000 -0.000003 0.939822 4.094092 16.391832 -11.080414 -28.739476 38.501589 -0.000007 13.623174 0.000006 10.004286 9.908030 -21.403434 -5.896618 8.461658 -2.731193 8.220482 -28.762125 -1.814230 -7.604336 8.034099 -10.251655 -0.000000 0.000003 0.000001 -1.609887 6.345227 11.173131 0.205618 -1.369930 17.071366 0.215845 -1.402802 17.494145 0.000002 0.000001 0.000000 14.897459 6.141155 -4.889335 45.087957 12.000157 -9.197191 -27.292990 22.210296 -26.341714 -38.886572 0.071491 -2.091176 -0.000000 0.000000 0.000000 -93.074004 -0.518137 0.927478 53.502743 -7.417879 0.983059 11.560976 -28.553567 -9.177434 -4.545361 -0.000017 -0.000007 0.000000 0.000002 0.000000 
1.990906 62.171753 7.319063 25.906132 2.949434 1.147804 13.103989 -12.876090 15.116675 2.668048 -3.796903 2.248235 2.567494 -3.933764 2.401823 -0.654293 2.360190 -4.707582 -8.974639 8.676267 -7.562623 -0.000001 0.000000 0.000000 2.366476 -14.423184 0.954428 -34.879529 -49.064391 -13.839950 0.000093 -95.219626 0.000084 30.844649 -18.700749 23.635887 0.440084 4.477712 -13.270333 0.253860 1.707496 -16.911728 0.253732 1.707088 -16.907505 0.000001 0.000001 0.000001 -12.218822 -22.729381 -1.966290 9.717108 40.897489 4.873912 -9.130502 -8.902152 12.287409 -0.000002 -0.000001 0.000006 0.772884 5.626761 17.113804 -11.817184 -27.317639 37.764877 -0.000007 15.078336 -0.000014 6.123726 5.323813 -22.566491 -5.637715 8.312674 -2.785873 8.213419 -28.413614 -1.871647 -7.622880 7.876490 -10.364714 0.000001 0.000003 -0.000001 -1.549336 6.266943 10.897880 0.214308 -1.397923 17.431481 0.224475 -1.429886 17.843280 0.000001 -0.000004 -0.000001 10.485217 5.278347 -2.660131 48.569257 11.566421 -9.415336 -18.285152 22.604393 -31.991100 -42.677966 1.091085 -8.418464 -0.000000 -0.000000 0.000000 -96.097319 -1.222397 1.693972 55.797134 -7.071021 1.000934 9.858906 -28.408755 -7.870734 -4.616822 0.000024 -0.000003 0.000000 -0.000003 -0.000000 
